<svg xmlns="http://www.w3.org/2000/svg" viewBox="0 0 1041 521" stroke="currentColor"><g fill="none" fill-rule="evenodd" stroke-dasharray="6" transform="translate(.5 .5)"><path stroke="currentColor" d="M312 104 416 104 416 208 312 208ZM416 104 520 104 520 208 416 208ZM208 104 312 104 312 208 208 208ZM208 208 312 208 312 312 208 312ZM208 0 312 0 312 104 208 104ZM104 104 208 104 208 208 104 208ZM0 104 104 104 104 208 0 208ZM104 208 208 208 208 312 104 312ZM0 208 104 208 104 312 0 312ZM104 0 208 0 208 104 104 104ZM0 0 104 0 104 104 0 104ZM312 208 416 208 416 312 312 312ZM416 208 520 208 520 312 416 312ZM312 0 416 0 416 104 312 104ZM416 0 520 0 520 104 416 104Z" opacity=".5"/><path stroke="currentColor" d="M312 104 416 104 416 208 312 208ZM416 104 520 104 520 208 416 208ZM208 104 312 104 312 208 208 208ZM208 0 312 0 312 104 208 104ZM104 104 208 104 208 208 104 208ZM0 104 104 104 104 208 0 208ZM104 0 208 0 208 104 104 104ZM0 0 104 0 104 104 0 104ZM312 0 416 0 416 104 312 104ZM416 0 520 0 520 104 416 104Z" opacity=".5" transform="translate(0 312)"/><path stroke="currentColor" d="M312 104 416 104 416 208 312 208ZM416 104 520 104 520 208 416 208ZM208 104 312 104 312 208 208 208ZM208 208 312 208 312 312 208 312ZM208 0 312 0 312 104 208 104ZM104 104 208 104 208 208 104 208ZM0 104 104 104 104 208 0 208ZM104 208 208 208 208 312 104 312ZM0 208 104 208 104 312 0 312ZM104 0 208 0 208 104 104 104ZM0 0 104 0 104 104 0 104ZM312 208 416 208 416 312 312 312ZM416 208 520 208 520 312 416 312ZM312 0 416 0 416 104 312 104ZM416 0 520 0 520 104 416 104Z" opacity=".5" transform="translate(520)"/><path stroke="currentColor" d="M312 104 416 104 416 208 312 208ZM416 104 520 104 520 208 416 208ZM208 104 312 104 312 208 208 208ZM208 0 312 0 312 104 208 104ZM104 104 208 104 208 208 104 208ZM0 104 104 104 104 208 0 208ZM104 0 208 0 208 104 104 104ZM0 0 104 0 104 104 0 104ZM312 0 416 0 416 104 312 104ZM416 0 520 0 520 104 416 104Z" opacity=".5" transform="translate(520 312)"/><path stroke="currentColor" d="M208 77.5C222.635546 77.5 234.5 89.3644541 234.5 104 234.5 118.635546 222.635546 130.5 208 130.5 193.364454 130.5 181.5 118.635546 181.5 104 181.5 89.3644541 193.364454 77.5 208 77.5ZM832 389.5C846.635546 389.5 858.5 401.364454 858.5 416 858.5 430.635546 846.635546 442.5 832 442.5 817.364454 442.5 805.5 430.635546 805.5 416 805.5 401.364454 817.364454 389.5 832 389.5Z"/></g></svg>